<mxfile host="app.diagrams.net" modified="2024-06-13T23:53:30.585Z" agent="Mozilla/5.0 (Windows NT 10.0; Win64; x64) AppleWebKit/537.36 (KHTML, like Gecko) Chrome/125.0.0.0 Safari/537.36" etag="gFwoNvb3vhxOYoSZwiD8" version="24.5.1" type="device">
  <diagram name="Página-1" id="EfbYK_mi9wJp_YP1OlOy">
    <mxGraphModel dx="1035" dy="551" grid="1" gridSize="10" guides="1" tooltips="1" connect="1" arrows="1" fold="1" page="1" pageScale="1" pageWidth="827" pageHeight="1169" math="0" shadow="0">
      <root>
        <mxCell id="0" />
        <mxCell id="1" parent="0" />
        <mxCell id="j7mN4tPIr4CfE0jTIzPB-1" value="Médico" style="rounded=0;whiteSpace=wrap;html=1;" vertex="1" parent="1">
          <mxGeometry x="685" y="235" width="70" height="40" as="geometry" />
        </mxCell>
        <mxCell id="j7mN4tPIr4CfE0jTIzPB-2" value="Paciente" style="rounded=0;whiteSpace=wrap;html=1;" vertex="1" parent="1">
          <mxGeometry x="20" y="230" width="100" height="50" as="geometry" />
        </mxCell>
        <mxCell id="j7mN4tPIr4CfE0jTIzPB-3" value="Especialização" style="rounded=0;whiteSpace=wrap;html=1;" vertex="1" parent="1">
          <mxGeometry x="660" y="440" width="120" height="40" as="geometry" />
        </mxCell>
        <mxCell id="j7mN4tPIr4CfE0jTIzPB-8" value="Possui/Engloba" style="rhombus;whiteSpace=wrap;html=1;" vertex="1" parent="1">
          <mxGeometry x="660" y="330" width="120" height="50" as="geometry" />
        </mxCell>
        <mxCell id="j7mN4tPIr4CfE0jTIzPB-10" value="N" style="text;html=1;align=center;verticalAlign=middle;whiteSpace=wrap;rounded=0;" vertex="1" parent="1">
          <mxGeometry x="130" y="190" width="60" height="30" as="geometry" />
        </mxCell>
        <mxCell id="j7mN4tPIr4CfE0jTIzPB-11" value="1" style="text;html=1;align=center;verticalAlign=middle;whiteSpace=wrap;rounded=0;" vertex="1" parent="1">
          <mxGeometry x="270" y="190" width="60" height="30" as="geometry" />
        </mxCell>
        <mxCell id="j7mN4tPIr4CfE0jTIzPB-13" value="N" style="text;html=1;align=center;verticalAlign=middle;whiteSpace=wrap;rounded=0;" vertex="1" parent="1">
          <mxGeometry x="767" y="390" width="60" height="30" as="geometry" />
        </mxCell>
        <mxCell id="j7mN4tPIr4CfE0jTIzPB-14" value="1" style="text;html=1;align=center;verticalAlign=middle;whiteSpace=wrap;rounded=0;" vertex="1" parent="1">
          <mxGeometry x="767" y="287.5" width="60" height="30" as="geometry" />
        </mxCell>
        <mxCell id="j7mN4tPIr4CfE0jTIzPB-15" value="consulta" style="rounded=0;whiteSpace=wrap;html=1;" vertex="1" parent="1">
          <mxGeometry x="340" y="232.5" width="90" height="40" as="geometry" />
        </mxCell>
        <mxCell id="j7mN4tPIr4CfE0jTIzPB-16" value="telefone" style="rounded=0;whiteSpace=wrap;html=1;" vertex="1" parent="1">
          <mxGeometry x="20" y="480" width="90" height="40" as="geometry" />
        </mxCell>
        <mxCell id="j7mN4tPIr4CfE0jTIzPB-19" value="" style="endArrow=none;html=1;rounded=0;" edge="1" parent="1">
          <mxGeometry width="50" height="50" relative="1" as="geometry">
            <mxPoint x="64.5" y="340" as="sourcePoint" />
            <mxPoint x="64.5" y="280" as="targetPoint" />
          </mxGeometry>
        </mxCell>
        <mxCell id="j7mN4tPIr4CfE0jTIzPB-20" value="possui/pertence" style="rhombus;whiteSpace=wrap;html=1;" vertex="1" parent="1">
          <mxGeometry y="340" width="130" height="80" as="geometry" />
        </mxCell>
        <mxCell id="j7mN4tPIr4CfE0jTIzPB-21" value="" style="endArrow=none;html=1;rounded=0;" edge="1" parent="1">
          <mxGeometry width="50" height="50" relative="1" as="geometry">
            <mxPoint x="64.5" y="480" as="sourcePoint" />
            <mxPoint x="64.5" y="420" as="targetPoint" />
          </mxGeometry>
        </mxCell>
        <mxCell id="j7mN4tPIr4CfE0jTIzPB-22" value="N" style="text;html=1;align=center;verticalAlign=middle;whiteSpace=wrap;rounded=0;" vertex="1" parent="1">
          <mxGeometry x="10" y="287.5" width="60" height="30" as="geometry" />
        </mxCell>
        <mxCell id="j7mN4tPIr4CfE0jTIzPB-23" value="1" style="text;html=1;align=center;verticalAlign=middle;whiteSpace=wrap;rounded=0;" vertex="1" parent="1">
          <mxGeometry y="430" width="60" height="30" as="geometry" />
        </mxCell>
        <mxCell id="j7mN4tPIr4CfE0jTIzPB-24" value="tem/pertence" style="rhombus;whiteSpace=wrap;html=1;" vertex="1" parent="1">
          <mxGeometry x="150" y="227.5" width="120" height="55" as="geometry" />
        </mxCell>
        <mxCell id="j7mN4tPIr4CfE0jTIzPB-26" value="possui" style="rhombus;whiteSpace=wrap;html=1;" vertex="1" parent="1">
          <mxGeometry x="510" y="225" width="120" height="55" as="geometry" />
        </mxCell>
        <mxCell id="j7mN4tPIr4CfE0jTIzPB-31" value="1" style="text;html=1;align=center;verticalAlign=middle;whiteSpace=wrap;rounded=0;" vertex="1" parent="1">
          <mxGeometry x="450" y="190" width="60" height="30" as="geometry" />
        </mxCell>
        <mxCell id="j7mN4tPIr4CfE0jTIzPB-33" value="N" style="text;html=1;align=center;verticalAlign=middle;whiteSpace=wrap;rounded=0;" vertex="1" parent="1">
          <mxGeometry x="630" y="190" width="60" height="30" as="geometry" />
        </mxCell>
        <mxCell id="j7mN4tPIr4CfE0jTIzPB-35" value="" style="endArrow=none;html=1;rounded=0;exitX=1;exitY=0.5;exitDx=0;exitDy=0;entryX=0;entryY=0.5;entryDx=0;entryDy=0;" edge="1" parent="1" source="j7mN4tPIr4CfE0jTIzPB-15" target="j7mN4tPIr4CfE0jTIzPB-26">
          <mxGeometry width="50" height="50" relative="1" as="geometry">
            <mxPoint x="440" y="259.5" as="sourcePoint" />
            <mxPoint x="501" y="259.5" as="targetPoint" />
          </mxGeometry>
        </mxCell>
        <mxCell id="j7mN4tPIr4CfE0jTIzPB-36" value="" style="endArrow=none;html=1;rounded=0;exitX=1;exitY=0.5;exitDx=0;exitDy=0;entryX=0;entryY=0.5;entryDx=0;entryDy=0;" edge="1" parent="1" source="j7mN4tPIr4CfE0jTIzPB-26" target="j7mN4tPIr4CfE0jTIzPB-1">
          <mxGeometry width="50" height="50" relative="1" as="geometry">
            <mxPoint x="600" y="267.5" as="sourcePoint" />
            <mxPoint x="680" y="260.5" as="targetPoint" />
          </mxGeometry>
        </mxCell>
        <mxCell id="j7mN4tPIr4CfE0jTIzPB-37" value="" style="endArrow=none;html=1;rounded=0;exitX=0.5;exitY=0;exitDx=0;exitDy=0;entryX=0.5;entryY=1;entryDx=0;entryDy=0;" edge="1" parent="1" source="j7mN4tPIr4CfE0jTIzPB-8" target="j7mN4tPIr4CfE0jTIzPB-1">
          <mxGeometry width="50" height="50" relative="1" as="geometry">
            <mxPoint x="670" y="287.5" as="sourcePoint" />
            <mxPoint x="730" y="282.5" as="targetPoint" />
          </mxGeometry>
        </mxCell>
        <mxCell id="j7mN4tPIr4CfE0jTIzPB-38" value="" style="endArrow=none;html=1;rounded=0;exitX=0.5;exitY=0;exitDx=0;exitDy=0;entryX=0.5;entryY=1;entryDx=0;entryDy=0;" edge="1" parent="1" source="j7mN4tPIr4CfE0jTIzPB-3" target="j7mN4tPIr4CfE0jTIzPB-8">
          <mxGeometry width="50" height="50" relative="1" as="geometry">
            <mxPoint x="660" y="405" as="sourcePoint" />
            <mxPoint x="720" y="400" as="targetPoint" />
          </mxGeometry>
        </mxCell>
        <mxCell id="j7mN4tPIr4CfE0jTIzPB-39" value="" style="endArrow=none;html=1;rounded=0;exitX=1;exitY=0.5;exitDx=0;exitDy=0;entryX=0;entryY=0.5;entryDx=0;entryDy=0;" edge="1" parent="1" source="j7mN4tPIr4CfE0jTIzPB-24" target="j7mN4tPIr4CfE0jTIzPB-15">
          <mxGeometry width="50" height="50" relative="1" as="geometry">
            <mxPoint x="270" y="267.5" as="sourcePoint" />
            <mxPoint x="330" y="262.5" as="targetPoint" />
          </mxGeometry>
        </mxCell>
        <mxCell id="j7mN4tPIr4CfE0jTIzPB-40" value="" style="endArrow=none;html=1;rounded=0;exitX=1;exitY=0.5;exitDx=0;exitDy=0;entryX=0;entryY=0.5;entryDx=0;entryDy=0;" edge="1" parent="1" source="j7mN4tPIr4CfE0jTIzPB-2" target="j7mN4tPIr4CfE0jTIzPB-24">
          <mxGeometry width="50" height="50" relative="1" as="geometry">
            <mxPoint x="100" y="272.5" as="sourcePoint" />
            <mxPoint x="160" y="267.5" as="targetPoint" />
          </mxGeometry>
        </mxCell>
        <mxCell id="j7mN4tPIr4CfE0jTIzPB-42" value="" style="endArrow=oval;html=1;rounded=0;exitX=0.25;exitY=0;exitDx=0;exitDy=0;endFill=1;" edge="1" parent="1" source="j7mN4tPIr4CfE0jTIzPB-2">
          <mxGeometry width="50" height="50" relative="1" as="geometry">
            <mxPoint x="39.5" y="220" as="sourcePoint" />
            <mxPoint x="45" y="200" as="targetPoint" />
          </mxGeometry>
        </mxCell>
        <mxCell id="j7mN4tPIr4CfE0jTIzPB-43" value="" style="endArrow=oval;html=1;rounded=0;exitX=0.5;exitY=0;exitDx=0;exitDy=0;endFill=0;" edge="1" parent="1" source="j7mN4tPIr4CfE0jTIzPB-2">
          <mxGeometry width="50" height="50" relative="1" as="geometry">
            <mxPoint x="49.5" y="220" as="sourcePoint" />
            <mxPoint x="70" y="200" as="targetPoint" />
          </mxGeometry>
        </mxCell>
        <mxCell id="j7mN4tPIr4CfE0jTIzPB-44" value="" style="endArrow=oval;html=1;rounded=0;exitX=0.75;exitY=0;exitDx=0;exitDy=0;endFill=0;" edge="1" parent="1" source="j7mN4tPIr4CfE0jTIzPB-2">
          <mxGeometry width="50" height="50" relative="1" as="geometry">
            <mxPoint x="100" y="220" as="sourcePoint" />
            <mxPoint x="95" y="200" as="targetPoint" />
          </mxGeometry>
        </mxCell>
        <mxCell id="j7mN4tPIr4CfE0jTIzPB-51" value="" style="endArrow=oval;html=1;rounded=0;endFill=1;" edge="1" parent="1">
          <mxGeometry width="50" height="50" relative="1" as="geometry">
            <mxPoint x="350" y="272.5" as="sourcePoint" />
            <mxPoint x="350" y="330" as="targetPoint" />
          </mxGeometry>
        </mxCell>
        <mxCell id="j7mN4tPIr4CfE0jTIzPB-58" value="" style="endArrow=oval;html=1;rounded=0;endFill=1;" edge="1" parent="1">
          <mxGeometry width="50" height="50" relative="1" as="geometry">
            <mxPoint x="690" y="235" as="sourcePoint" />
            <mxPoint x="690" y="180" as="targetPoint" />
          </mxGeometry>
        </mxCell>
        <mxCell id="j7mN4tPIr4CfE0jTIzPB-59" value="" style="endArrow=oval;html=1;rounded=0;endFill=1;" edge="1" parent="1">
          <mxGeometry width="50" height="50" relative="1" as="geometry">
            <mxPoint x="700" y="235" as="sourcePoint" />
            <mxPoint x="700" y="180" as="targetPoint" />
          </mxGeometry>
        </mxCell>
        <mxCell id="j7mN4tPIr4CfE0jTIzPB-66" value="" style="endArrow=oval;html=1;rounded=0;endFill=1;" edge="1" parent="1">
          <mxGeometry width="50" height="50" relative="1" as="geometry">
            <mxPoint x="370" y="272.5" as="sourcePoint" />
            <mxPoint x="370" y="330" as="targetPoint" />
          </mxGeometry>
        </mxCell>
        <mxCell id="j7mN4tPIr4CfE0jTIzPB-67" value="" style="endArrow=oval;html=1;rounded=0;endFill=0;" edge="1" parent="1">
          <mxGeometry width="50" height="50" relative="1" as="geometry">
            <mxPoint x="390" y="272.5" as="sourcePoint" />
            <mxPoint x="390" y="330" as="targetPoint" />
          </mxGeometry>
        </mxCell>
        <mxCell id="j7mN4tPIr4CfE0jTIzPB-68" value="" style="endArrow=oval;html=1;rounded=0;endFill=0;" edge="1" parent="1">
          <mxGeometry width="50" height="50" relative="1" as="geometry">
            <mxPoint x="414" y="272.5" as="sourcePoint" />
            <mxPoint x="414" y="330" as="targetPoint" />
          </mxGeometry>
        </mxCell>
        <mxCell id="j7mN4tPIr4CfE0jTIzPB-69" value="" style="endArrow=oval;html=1;rounded=0;endFill=1;" edge="1" parent="1">
          <mxGeometry width="50" height="50" relative="1" as="geometry">
            <mxPoint x="380" y="272.5" as="sourcePoint" />
            <mxPoint x="380" y="330" as="targetPoint" />
          </mxGeometry>
        </mxCell>
        <mxCell id="j7mN4tPIr4CfE0jTIzPB-70" value="" style="endArrow=oval;html=1;rounded=0;endFill=0;" edge="1" parent="1">
          <mxGeometry width="50" height="50" relative="1" as="geometry">
            <mxPoint x="400" y="272.5" as="sourcePoint" />
            <mxPoint x="400" y="330" as="targetPoint" />
          </mxGeometry>
        </mxCell>
        <mxCell id="j7mN4tPIr4CfE0jTIzPB-71" value="" style="endArrow=oval;html=1;rounded=0;endFill=1;" edge="1" parent="1">
          <mxGeometry width="50" height="50" relative="1" as="geometry">
            <mxPoint x="670" y="480" as="sourcePoint" />
            <mxPoint x="670" y="537.5" as="targetPoint" />
          </mxGeometry>
        </mxCell>
        <mxCell id="j7mN4tPIr4CfE0jTIzPB-72" value="" style="endArrow=oval;html=1;rounded=0;endFill=0;" edge="1" parent="1">
          <mxGeometry width="50" height="50" relative="1" as="geometry">
            <mxPoint x="719.76" y="480" as="sourcePoint" />
            <mxPoint x="719.76" y="537.5" as="targetPoint" />
          </mxGeometry>
        </mxCell>
        <mxCell id="j7mN4tPIr4CfE0jTIzPB-73" value="" style="endArrow=oval;html=1;rounded=0;endFill=0;" edge="1" parent="1">
          <mxGeometry width="50" height="50" relative="1" as="geometry">
            <mxPoint x="755" y="480" as="sourcePoint" />
            <mxPoint x="755" y="537.5" as="targetPoint" />
          </mxGeometry>
        </mxCell>
        <mxCell id="j7mN4tPIr4CfE0jTIzPB-74" value="" style="endArrow=oval;html=1;rounded=0;endFill=0;" edge="1" parent="1">
          <mxGeometry width="50" height="50" relative="1" as="geometry">
            <mxPoint x="100" y="520" as="sourcePoint" />
            <mxPoint x="100" y="577.5" as="targetPoint" />
          </mxGeometry>
        </mxCell>
        <mxCell id="j7mN4tPIr4CfE0jTIzPB-75" value="" style="endArrow=oval;html=1;rounded=0;endFill=0;" edge="1" parent="1">
          <mxGeometry width="50" height="50" relative="1" as="geometry">
            <mxPoint x="90" y="520" as="sourcePoint" />
            <mxPoint x="90" y="577.5" as="targetPoint" />
          </mxGeometry>
        </mxCell>
        <mxCell id="j7mN4tPIr4CfE0jTIzPB-76" value="" style="endArrow=oval;html=1;rounded=0;endFill=0;" edge="1" parent="1">
          <mxGeometry width="50" height="50" relative="1" as="geometry">
            <mxPoint x="70" y="520" as="sourcePoint" />
            <mxPoint x="70" y="577.5" as="targetPoint" />
          </mxGeometry>
        </mxCell>
        <mxCell id="j7mN4tPIr4CfE0jTIzPB-77" value="" style="endArrow=oval;html=1;rounded=0;endFill=1;" edge="1" parent="1">
          <mxGeometry width="50" height="50" relative="1" as="geometry">
            <mxPoint x="50" y="520" as="sourcePoint" />
            <mxPoint x="50" y="577.5" as="targetPoint" />
          </mxGeometry>
        </mxCell>
        <mxCell id="j7mN4tPIr4CfE0jTIzPB-78" value="" style="endArrow=oval;html=1;rounded=0;endFill=1;" edge="1" parent="1">
          <mxGeometry width="50" height="50" relative="1" as="geometry">
            <mxPoint x="39.879999999999995" y="520" as="sourcePoint" />
            <mxPoint x="39.879999999999995" y="577.5" as="targetPoint" />
          </mxGeometry>
        </mxCell>
        <mxCell id="j7mN4tPIr4CfE0jTIzPB-79" value="" style="endArrow=oval;html=1;rounded=0;endFill=0;" edge="1" parent="1">
          <mxGeometry width="50" height="50" relative="1" as="geometry">
            <mxPoint x="710" y="235" as="sourcePoint" />
            <mxPoint x="710" y="180" as="targetPoint" />
          </mxGeometry>
        </mxCell>
        <mxCell id="j7mN4tPIr4CfE0jTIzPB-80" value="" style="endArrow=oval;html=1;rounded=0;endFill=0;" edge="1" parent="1">
          <mxGeometry width="50" height="50" relative="1" as="geometry">
            <mxPoint x="730" y="235" as="sourcePoint" />
            <mxPoint x="730" y="180" as="targetPoint" />
          </mxGeometry>
        </mxCell>
      </root>
    </mxGraphModel>
  </diagram>
</mxfile>
